<?xml version="1.0" encoding="utf-8"?>
<!-- Generator: Adobe Illustrator 21.0.2, SVG Export Plug-In . SVG Version: 6.00 Build 0)  -->
<svg version="1.1" id="Layer_1" xmlns="http://www.w3.org/2000/svg" xmlns:xlink="http://www.w3.org/1999/xlink" x="0px" y="0px"
	 viewBox="0 0 322.9 98.7" style="enable-background:new 0 0 322.9 98.7;" xml:space="preserve">
<style type="text/css">
	.st0{fill:#0080BB;}
</style>
<g>
	<g>
		<polygon class="st0" points="322.9,18.5 319.8,18.5 319.8,3 319.7,3 313,18.5 311.2,18.5 304.7,3 304.6,3 304.6,18.5 301.5,18.5 
			301.5,0.4 306.5,0.4 312.1,13.2 318,0.4 322.9,0.4 		"/>
		<polygon class="st0" points="297.3,3 291.3,3 291.3,18.5 288.1,18.5 288.1,3 282,3 282,0.4 297.3,0.4 		"/>
	</g>
	<g>
		<path class="st0" d="M170.3,97.8c-27.2,0-49-21.8-49-48.9c0-27.1,21.8-48.9,49-48.9c27.1,0,49,21.8,49,48.9
			C219.3,76,197.3,97.8,170.3,97.8z M135.5,48.9c0,19.3,15.5,34.7,34.8,34.7c19.3,0,34.8-15.4,34.8-34.7c0-19.3-15.5-34.7-34.8-34.7
			C151,14.2,135.5,29.6,135.5,48.9z"/>
		<path class="st0" d="M71,77.3c5.3,5.8,10.6,8,18.4,8c9.7,0,15.9-6.6,15.9-16.2c0-20.6-33.4-20.2-33.4-45.2c0-14.1,10.4-23,23.2-23
			c2.2,0,4.1,0.5,5.9,0.9c1.8,0.4,3.5,0.9,5.2,0.9c1.3,0,2.8-0.5,3.6-1.7v20.4c-3.5-5.3-8-7.1-14.2-7.1c-4.5,0-9.3,4.3-9.3,8.8
			c0,15.5,33.4,15.2,33.4,45.6c0,16.2-11.7,30-29,30c-6.3,0-11.3-2.4-16.2-2.4c-1,0-2.7,1.2-3.5,2.4V77.3z"/>
		<path class="st0" d="M237.3,90.4c0,2.2,0.5,3.7,2.4,5.3h-18.8c1.9-1.6,2.4-3,2.4-5.3V0c1.4,1.7,2.6,1.8,4.8,1.8
			c3,0,12.1-1.8,18.4-1.8c17.4,0,31.8,14.6,31.8,31.9c0,17.4-13.7,32.2-30.3,32.2c-3.4,0-7.7-0.5-10.8-2.2V90.4z M237.3,49.6
			c2.2,0.5,4.9,0.4,7.3,0.4c11.3,0,19.6-6.6,19.6-18.4c0-10.5-7.6-17.4-18-17.4h-8.9V49.6z"/>
		<path class="st0" d="M47,14.2c6.2,0,14.2,2.5,19.7,5.7V0c-1.4,2.1-1.9,2.6-3.3,2.6C62,2.6,52.2,0,47,0C20.9,0,0,21.8,0,48.9
			C0,76,20.9,97.8,47,97.8c4.5,0,9.9-2.1,15.5-2.1c0.9,0,1.6,0.1,2.4,0.4c0.7,0.3,1.4,0.8,1.9,1.7V78.2c-6.2,3.7-13.4,5.4-19.7,5.4
			c-16.1,0-29.5-11.6-32.7-27.3h33.6c2.7,0,4.1,0.6,5.7,2.7V40c-1.5,1.7-3,2.3-5.7,2.3H14.2C17.2,26.4,30.8,14.2,47,14.2z"/>
	</g>
</g>
</svg>
